HIERARCHY
ROOT joint_Root
{
	OFFSET 0.0 0.0 0.0
	CHANNELS 6 Xposition Yposition Zposition Zrotation Xrotation Yrotation 
	JOINT Hips
	{
		OFFSET 4.5925 91.4895 -427.239
		CHANNELS 6 Xposition Yposition Zposition Zrotation Xrotation Yrotation 
		JOINT Spine
		{
			OFFSET 15.7357 0.0 0.0
			CHANNELS 6 Xposition Yposition Zposition Zrotation Xrotation Yrotation 
			JOINT Chest
			{
				OFFSET 8.98455 -0.406207 0.0
				CHANNELS 6 Xposition Yposition Zposition Zrotation Xrotation Yrotation 
				JOINT Neck
				{
					OFFSET 16.3773 0.0 0.0
					CHANNELS 6 Xposition Yposition Zposition Zrotation Xrotation Yrotation 
					JOINT Head
					{
						OFFSET 6.45672 0.0 0.0
						CHANNELS 6 Xposition Yposition Zposition Zrotation Xrotation Yrotation 
						End Site
						{
							OFFSET 0.0 0.0 0.0
						}
					}
				}
				JOINT Shoulder_L
				{
					OFFSET 12.9942 -0.242716 4.98039
					CHANNELS 6 Xposition Yposition Zposition Zrotation Xrotation Yrotation 
					JOINT UpperArm_L
					{
						OFFSET 5.34809 0.0 0.0
						CHANNELS 6 Xposition Yposition Zposition Zrotation Xrotation Yrotation 
						JOINT LowerArm_L
						{
							OFFSET 24.3286 1.87007e-05 0.0
							CHANNELS 6 Xposition Yposition Zposition Zrotation Xrotation Yrotation 
							JOINT Hand_L
							{
								OFFSET 22.2916 0.0 0.0
								CHANNELS 6 Xposition Yposition Zposition Zrotation Xrotation Yrotation 
								End Site
								{
									OFFSET 0.0 0.0 0.0
								}
							}
						}
					}
				}
				JOINT Shoulder_R
				{
					OFFSET 12.9945 -0.242716 -4.98039
					CHANNELS 6 Xposition Yposition Zposition Zrotation Xrotation Yrotation 
					JOINT UpperArm_R
					{
						OFFSET -5.34813 0.0 0.0
						CHANNELS 6 Xposition Yposition Zposition Zrotation Xrotation Yrotation 
						JOINT LowerArm_R
						{
							OFFSET -24.3289 0.000322201 0.0
							CHANNELS 6 Xposition Yposition Zposition Zrotation Xrotation Yrotation 
							JOINT Hand_R
							{
								OFFSET -22.2915 -0.000108084 0.0
								CHANNELS 6 Xposition Yposition Zposition Zrotation Xrotation Yrotation 
								End Site
								{
									OFFSET 0.0 0.0 0.0
								}
							}
						}
					}
				}
			}
		}
		JOINT UpperLeg_L
		{
			OFFSET -2.19248 -6.46944 0.0
			CHANNELS 6 Xposition Yposition Zposition Zrotation Xrotation Yrotation 
			JOINT LowerLeg_L
			{
				OFFSET 39.0811 0.0 -1.23785e-05
				CHANNELS 6 Xposition Yposition Zposition Zrotation Xrotation Yrotation 
				JOINT Foot_L
				{
					OFFSET 40.9854 0.0 -1.26872e-05
					CHANNELS 6 Xposition Yposition Zposition Zrotation Xrotation Yrotation 
					JOINT Toes_L
					{
						OFFSET 11.7543 0.0 0.0
						CHANNELS 6 Xposition Yposition Zposition Zrotation Xrotation Yrotation 
						End Site
						{
							OFFSET 0.0 0.0 0.0
						}
					}
				}
			}
		}
		JOINT UpperLeg_R
		{
			OFFSET -2.19251 6.46944 0.0
			CHANNELS 6 Xposition Yposition Zposition Zrotation Xrotation Yrotation 
			JOINT LowerLeg_R
			{
				OFFSET -39.0811 -0.00228153 -0.0401928
				CHANNELS 6 Xposition Yposition Zposition Zrotation Xrotation Yrotation 
				JOINT Foot_R
				{
					OFFSET -40.9854 0.0 0.0
					CHANNELS 6 Xposition Yposition Zposition Zrotation Xrotation Yrotation 
					JOINT Toes_R
					{
						OFFSET -11.7543 0.0 0.0
						CHANNELS 6 Xposition Yposition Zposition Zrotation Xrotation Yrotation 
						End Site
						{
							OFFSET 0.0 0.0 0.0
						}
					}
				}
			}
		}
	}
}
MOTION
Frames:	4
Frame Time:	0.0333333
0.000000 0.000000 0.000000 0.000000 0.000000 -0.000000 -3.907110 84.678400 72.075000 -92.327400 8.090910 -175.475000 15.735700 0.000005 -0.000001 107.232000 80.743900 -109.291000 8.984550 -0.406207 -0.000000 10.049500 5.408510 -4.594540 16.377300 -0.000001 -0.000001 -1.830000 -2.770300 1.479160 6.456720 -0.000001 -0.000000 -7.024760 -6.051910 2.401500 12.994200 -0.242716 4.980390 -92.756700 6.531760 -67.057900 5.348090 -0.000007 -0.000001 -57.708500 28.861700 7.994130 24.328600 0.000019 0.000005 13.495000 0.145180 -89.395100 22.291600 -0.000001 0.000005 5.305640 5.531660 -7.868050 12.994500 -0.242716 -4.980390 88.599300 10.255800 -82.180200 -5.348130 -0.000001 -0.000004 -64.272400 30.822400 -11.106500 -24.328900 0.000322 -0.000009 -7.075440 -1.722510 -76.382200 -22.291500 -0.000108 -0.000004 17.988100 5.508230 -6.868740 -2.192480 -6.469440 -0.000000 177.021000 -12.301600 -28.142900 39.081100 -0.000007 -0.000012 -0.280333 0.201073 54.350300 40.985400 -0.000006 -0.000013 1.592170 -2.739460 -72.622600 11.754300 -0.000000 0.000003 -0.000198 -0.001835 -16.646800 -2.192510 6.469440 -0.000001 164.716000 7.684900 -179.183000 -39.081100 -0.002282 -0.040193 0.332188 -0.177760 61.617600 -40.985400 0.000008 0.000006 4.370560 1.046470 -39.847500 -11.754300 -0.000006 -0.000006 -0.097854 -0.439200 -34.893400
0.000000 0.000000 0.000000 0.000000 0.000000 -0.000000 -4.540000 84.727500 67.288700 -92.698600 5.294640 -175.541000 15.735700 0.000005 -0.000001 101.980000 81.037500 -104.197000 8.984550 -0.406207 -0.000000 9.858440 3.657490 -4.747610 16.377300 -0.000001 -0.000001 -1.366820 -3.062160 1.341110 6.456720 -0.000001 -0.000000 -5.828600 -5.539070 3.061630 12.994200 -0.242716 4.980390 -93.108500 7.755300 -68.077800 5.348090 -0.000007 -0.000001 -58.578300 29.795700 -7.051020 24.328600 0.000019 0.000005 12.290000 -0.188743 -90.866400 22.291600 -0.000001 0.000005 6.738580 5.552510 -8.825090 12.994500 -0.242716 -4.980390 88.370500 11.054200 -81.560700 -5.348130 -0.000001 -0.000004 -65.539600 25.519300 -1.339640 -24.328900 0.000322 -0.000009 -5.371490 -3.393060 -57.805000 -22.291500 -0.000108 -0.000004 18.397700 5.545860 -8.512130 -2.192480 -6.469440 -0.000000 176.166000 -10.104800 -24.636400 39.081100 -0.000007 -0.000012 -0.307877 0.218655 54.618300 40.985400 -0.000006 -0.000013 1.925000 -2.568770 -76.404900 11.754300 -0.000000 0.000003 -0.000306 -0.002642 -16.675900 -2.192510 6.469440 -0.000001 166.415000 7.182980 173.562000 -39.081100 -0.002282 -0.040193 0.310606 -0.099389 72.089800 -40.985400 0.000008 0.000006 8.669300 -2.157720 -35.894700 -11.754300 -0.000006 -0.000006 -0.020029 -0.167450 -23.414500
0.000000 0.000000 0.000000 0.000000 0.000000 -0.000000 -4.799420 85.703900 62.646500 -92.312900 1.236730 -175.962000 15.735700 0.000005 -0.000001 94.960100 81.245400 -96.822900 8.984550 -0.406207 -0.000000 9.706780 1.473300 -3.848110 16.377300 -0.000001 -0.000001 -1.407760 -3.557720 0.315961 6.456720 -0.000001 -0.000000 -5.145020 -5.348420 3.721750 12.994200 -0.242716 4.980390 -92.441900 6.848270 -70.321300 5.348090 -0.000007 -0.000001 -59.433300 32.516700 -22.700900 24.328600 0.000019 0.000005 11.720100 -0.911154 -94.383300 22.291600 -0.000001 0.000005 8.722910 5.538270 -8.164280 12.994500 -0.242716 -4.980390 87.968400 11.597300 -79.992900 -5.348130 -0.000001 -0.000004 -62.592900 25.273600 10.144000 -24.328900 0.000322 -0.000009 -15.429100 -9.637550 -58.756700 -22.291500 -0.000108 -0.000004 16.028700 5.565150 -9.442740 -2.192480 -6.469440 -0.000000 176.491000 -7.746080 -19.721800 39.081100 -0.000007 -0.000012 -0.281666 0.225108 51.368800 40.985400 -0.000006 -0.000013 2.517140 -1.053330 -78.226300 11.754300 -0.000000 0.000003 -0.000289 -0.002523 -16.671700 -2.192510 6.469440 -0.000001 169.029000 8.606720 167.226000 -39.081100 -0.002282 -0.040193 0.268352 -0.052765 78.756900 -40.985400 0.000008 0.000006 9.294540 -2.240570 -42.631300 -11.754300 -0.000006 -0.000006 -0.021337 -0.174583 -23.708500
0.000000 0.000000 0.000000 0.000000 0.000000 -0.000000 -4.730270 87.218800 58.182800 -91.052300 -3.251030 -177.187000 15.735700 0.000005 -0.000001 80.933600 81.583500 -82.068500 8.984550 -0.406207 -0.000000 8.838240 -2.649590 -2.063200 16.377300 -0.000001 -0.000001 -1.095140 -3.486190 -0.215770 6.456720 -0.000001 -0.000000 -5.604570 -2.610910 2.609090 12.994200 -0.242716 4.980390 -90.946300 2.857740 -71.670100 5.348090 -0.000007 -0.000001 -60.302500 34.039100 -35.230900 24.328600 0.000019 0.000005 9.698310 -1.716670 -99.943200 22.291600 -0.000001 0.000005 9.893450 5.510130 -6.947130 12.994500 -0.242716 -4.980390 88.032200 8.819760 -77.369500 -5.348130 -0.000001 -0.000004 -62.371200 29.716400 18.559400 -24.328900 0.000322 -0.000009 -18.279800 -9.193830 -64.186000 -22.291500 -0.000108 -0.000004 12.435400 5.573320 -9.859450 -2.192480 -6.469440 -0.000000 178.245000 -5.717330 -14.735600 39.081100 -0.000007 -0.000012 -0.235829 0.230699 45.630600 40.985400 -0.000006 -0.000013 3.079310 1.572720 -78.541100 11.754300 -0.000000 0.000003 -0.000239 -0.002149 -16.658200 -2.192510 6.469440 -0.000001 172.654000 11.632900 160.478000 -39.081100 -0.002282 -0.040193 0.268158 -0.046504 80.057600 -40.985400 0.000008 0.000006 7.172690 -3.758940 -46.330200 -11.754300 -0.000006 -0.000006 -0.021223 -0.173971 -23.683300
